<mxfile host="65bd71144e">
    <diagram id="ivPxvWHh-f12isqgS0WY" name="Page-1">
        <mxGraphModel dx="3333" dy="2319" grid="1" gridSize="10" guides="1" tooltips="1" connect="1" arrows="1" fold="1" page="1" pageScale="1" pageWidth="827" pageHeight="1169" math="0" shadow="0">
            <root>
                <mxCell id="0"/>
                <mxCell id="1" parent="0"/>
                <mxCell id="3" value="&lt;meta charset=&quot;utf-8&quot;&gt;&lt;div style=&quot;color: rgb(197, 200, 198); background-color: rgb(30, 30, 30); font-family: Menlo, Monaco, &amp;quot;Courier New&amp;quot;, monospace; font-weight: normal; font-size: 15px; line-height: 23px;&quot;&gt;&lt;div&gt;&lt;span style=&quot;color: #9a9b99;&quot;&gt;// Event listener for the &quot;Generate&quot; button&lt;/span&gt;&lt;/div&gt;&lt;div&gt;&lt;span style=&quot;color: #c7444a;&quot;&gt;document&lt;/span&gt;&lt;span style=&quot;color: #c5c8c6;&quot;&gt;.&lt;/span&gt;&lt;span style=&quot;color: #ce6700;&quot;&gt;getElementById&lt;/span&gt;&lt;span style=&quot;color: #c5c8c6;&quot;&gt;(&lt;/span&gt;&lt;span style=&quot;color: #9aa83a;&quot;&gt;'generateBtn'&lt;/span&gt;&lt;span style=&quot;color: #c5c8c6;&quot;&gt;).&lt;/span&gt;&lt;span style=&quot;color: #ce6700;&quot;&gt;addEventListener&lt;/span&gt;&lt;span style=&quot;color: #c5c8c6;&quot;&gt;(&lt;/span&gt;&lt;span style=&quot;color: #9aa83a;&quot;&gt;'click'&lt;/span&gt;&lt;span style=&quot;color: #c5c8c6;&quot;&gt;, () &lt;/span&gt;&lt;span style=&quot;color: #9872a2;&quot;&gt;=&amp;gt;&lt;/span&gt;&lt;span style=&quot;color: #c5c8c6;&quot;&gt; {&lt;/span&gt;&lt;/div&gt;&lt;div&gt;&lt;span style=&quot;color: #c5c8c6;&quot;&gt;    &lt;/span&gt;&lt;span style=&quot;color: #9872a2;&quot;&gt;const&lt;/span&gt;&lt;span style=&quot;color: #c5c8c6;&quot;&gt; &lt;/span&gt;&lt;span style=&quot;color: #6089b4;&quot;&gt;ticket&lt;/span&gt;&lt;span style=&quot;color: #c5c8c6;&quot;&gt; &lt;/span&gt;&lt;span style=&quot;color: #676867;&quot;&gt;=&lt;/span&gt;&lt;span style=&quot;color: #c5c8c6;&quot;&gt; &lt;/span&gt;&lt;span style=&quot;color: #676867;&quot;&gt;new&lt;/span&gt;&lt;span style=&quot;color: #c5c8c6;&quot;&gt; &lt;/span&gt;&lt;span style=&quot;color: #9b0000;&quot;&gt;LotteryTicket&lt;/span&gt;&lt;span style=&quot;color: #c5c8c6;&quot;&gt;();&lt;/span&gt;&lt;/div&gt;&lt;div&gt;&lt;span style=&quot;color: #c5c8c6;&quot;&gt;    &lt;/span&gt;&lt;span style=&quot;color: #6089b4;&quot;&gt;ticket&lt;/span&gt;&lt;span style=&quot;color: #c5c8c6;&quot;&gt;.&lt;/span&gt;&lt;span style=&quot;color: #ce6700;&quot;&gt;generateUniqueNumbers&lt;/span&gt;&lt;span style=&quot;color: #c5c8c6;&quot;&gt;((&lt;/span&gt;&lt;span style=&quot;color: #6089b4;&quot;&gt;numbers&lt;/span&gt;&lt;span style=&quot;color: #c5c8c6;&quot;&gt;) &lt;/span&gt;&lt;span style=&quot;color: #9872a2;&quot;&gt;=&amp;gt;&lt;/span&gt;&lt;span style=&quot;color: #c5c8c6;&quot;&gt; {&lt;/span&gt;&lt;/div&gt;&lt;div&gt;&lt;span style=&quot;color: #c5c8c6;&quot;&gt;        &lt;/span&gt;&lt;span style=&quot;color: #6089b4;&quot;&gt;ticket&lt;/span&gt;&lt;span style=&quot;color: #c5c8c6;&quot;&gt;.&lt;/span&gt;&lt;span style=&quot;color: #9872a2;&quot;&gt;numbers&lt;/span&gt;&lt;span style=&quot;color: #c5c8c6;&quot;&gt; &lt;/span&gt;&lt;span style=&quot;color: #676867;&quot;&gt;=&lt;/span&gt;&lt;span style=&quot;color: #c5c8c6;&quot;&gt; &lt;/span&gt;&lt;span style=&quot;color: #6089b4;&quot;&gt;numbers&lt;/span&gt;&lt;span style=&quot;color: #c5c8c6;&quot;&gt;;&lt;/span&gt;&lt;/div&gt;&lt;div&gt;&lt;span style=&quot;color: #c5c8c6;&quot;&gt;        &lt;/span&gt;&lt;span style=&quot;color: #ce6700;&quot;&gt;addNewTicket&lt;/span&gt;&lt;span style=&quot;color: #c5c8c6;&quot;&gt;(&lt;/span&gt;&lt;span style=&quot;color: #6089b4;&quot;&gt;ticket&lt;/span&gt;&lt;span style=&quot;color: #c5c8c6;&quot;&gt;);&lt;/span&gt;&lt;/div&gt;&lt;div&gt;&lt;span style=&quot;color: #c5c8c6;&quot;&gt;    });&lt;/span&gt;&lt;/div&gt;&lt;div&gt;&lt;span style=&quot;color: #c5c8c6;&quot;&gt;});&lt;/span&gt;&lt;/div&gt;&lt;/div&gt;" style="text;whiteSpace=wrap;html=1;fontSize=20;fontFamily=Architects Daughter;" vertex="1" parent="1">
                    <mxGeometry x="-80" y="-270" width="560" height="230" as="geometry"/>
                </mxCell>
                <mxCell id="4" value="&lt;meta charset=&quot;utf-8&quot;&gt;&lt;div style=&quot;color: rgb(197, 200, 198); background-color: rgb(30, 30, 30); font-family: Menlo, Monaco, &amp;quot;Courier New&amp;quot;, monospace; font-weight: normal; font-size: 15px; line-height: 23px;&quot;&gt;&lt;div&gt;&lt;span style=&quot;color: #9a9b99;&quot;&gt;// Function to add a new ticket to the tickets array and update the table&lt;/span&gt;&lt;/div&gt;&lt;div&gt;&lt;span style=&quot;color: #9872a2;&quot;&gt;function&lt;/span&gt;&lt;span style=&quot;color: #c5c8c6;&quot;&gt; &lt;/span&gt;&lt;span style=&quot;color: #ce6700;&quot;&gt;addNewTicket&lt;/span&gt;&lt;span style=&quot;color: #c5c8c6;&quot;&gt;(&lt;/span&gt;&lt;span style=&quot;color: #6089b4;&quot;&gt;ticket&lt;/span&gt;&lt;span style=&quot;color: #c5c8c6;&quot;&gt;) {&lt;/span&gt;&lt;/div&gt;&lt;div&gt;&lt;span style=&quot;color: #c5c8c6;&quot;&gt;    &lt;/span&gt;&lt;span style=&quot;color: #6089b4;&quot;&gt;tickets&lt;/span&gt;&lt;span style=&quot;color: #c5c8c6;&quot;&gt;.&lt;/span&gt;&lt;span style=&quot;color: #ce6700;&quot;&gt;push&lt;/span&gt;&lt;span style=&quot;color: #c5c8c6;&quot;&gt;(&lt;/span&gt;&lt;span style=&quot;color: #6089b4;&quot;&gt;ticket&lt;/span&gt;&lt;span style=&quot;color: #c5c8c6;&quot;&gt;);&lt;/span&gt;&lt;/div&gt;&lt;div&gt;&lt;span style=&quot;color: #c5c8c6;&quot;&gt;    &lt;/span&gt;&lt;span style=&quot;color: #ce6700;&quot;&gt;addTicketToTable&lt;/span&gt;&lt;span style=&quot;color: #c5c8c6;&quot;&gt;(&lt;/span&gt;&lt;span style=&quot;color: #6089b4;&quot;&gt;ticket&lt;/span&gt;&lt;span style=&quot;color: #c5c8c6;&quot;&gt;, &lt;/span&gt;&lt;span style=&quot;color: #6089b4;&quot;&gt;tickets&lt;/span&gt;&lt;span style=&quot;color: #c5c8c6;&quot;&gt;.&lt;/span&gt;&lt;span style=&quot;color: #c7444a;&quot;&gt;length&lt;/span&gt;&lt;span style=&quot;color: #c5c8c6;&quot;&gt; &lt;/span&gt;&lt;span style=&quot;color: #676867;&quot;&gt;-&lt;/span&gt;&lt;span style=&quot;color: #c5c8c6;&quot;&gt; &lt;/span&gt;&lt;span style=&quot;color: #6089b4;&quot;&gt;1&lt;/span&gt;&lt;span style=&quot;color: #c5c8c6;&quot;&gt;);&lt;/span&gt;&lt;/div&gt;&lt;div&gt;&lt;span style=&quot;color: #c5c8c6;&quot;&gt;}&lt;/span&gt;&lt;/div&gt;&lt;/div&gt;" style="text;whiteSpace=wrap;html=1;fontSize=20;fontFamily=Architects Daughter;" vertex="1" parent="1">
                    <mxGeometry x="-440" y="150" width="560" height="160" as="geometry"/>
                </mxCell>
                <mxCell id="21" style="edgeStyle=none;sketch=1;hachureGap=4;jiggle=2;curveFitting=1;html=1;entryX=-0.005;entryY=0.067;entryDx=0;entryDy=0;entryPerimeter=0;fontFamily=Architects Daughter;fontSource=https%3A%2F%2Ffonts.googleapis.com%2Fcss%3Ffamily%3DArchitects%2BDaughter;fontSize=16;" edge="1" parent="1" source="5" target="8">
                    <mxGeometry relative="1" as="geometry"/>
                </mxCell>
                <mxCell id="5" value="&lt;meta charset=&quot;utf-8&quot;&gt;&lt;div style=&quot;color: rgb(197, 200, 198); background-color: rgb(30, 30, 30); font-family: Menlo, Monaco, &amp;quot;Courier New&amp;quot;, monospace; font-weight: normal; font-size: 15px; line-height: 23px;&quot;&gt;&lt;div&gt;&lt;span style=&quot;color: #9a9b99;&quot;&gt;// Function to update the entire tickets table (used after deletion)&lt;/span&gt;&lt;/div&gt;&lt;div&gt;&lt;span style=&quot;color: #9872a2;&quot;&gt;function&lt;/span&gt;&lt;span style=&quot;color: #c5c8c6;&quot;&gt; &lt;/span&gt;&lt;span style=&quot;color: #ce6700;&quot;&gt;updateTicketsTable&lt;/span&gt;&lt;span style=&quot;color: #c5c8c6;&quot;&gt;() {&lt;/span&gt;&lt;/div&gt;&lt;div&gt;&lt;span style=&quot;color: #c5c8c6;&quot;&gt;    &lt;/span&gt;&lt;span style=&quot;color: #9872a2;&quot;&gt;const&lt;/span&gt;&lt;span style=&quot;color: #c5c8c6;&quot;&gt; &lt;/span&gt;&lt;span style=&quot;color: #6089b4;&quot;&gt;table&lt;/span&gt;&lt;span style=&quot;color: #c5c8c6;&quot;&gt; &lt;/span&gt;&lt;span style=&quot;color: #676867;&quot;&gt;=&lt;/span&gt;&lt;span style=&quot;color: #c5c8c6;&quot;&gt; &lt;/span&gt;&lt;span style=&quot;color: #c7444a;&quot;&gt;document&lt;/span&gt;&lt;span style=&quot;color: #c5c8c6;&quot;&gt;.&lt;/span&gt;&lt;span style=&quot;color: #ce6700;&quot;&gt;getElementById&lt;/span&gt;&lt;span style=&quot;color: #c5c8c6;&quot;&gt;(&lt;/span&gt;&lt;span style=&quot;color: #9aa83a;&quot;&gt;'ticketsTable'&lt;/span&gt;&lt;span style=&quot;color: #c5c8c6;&quot;&gt;);&lt;/span&gt;&lt;/div&gt;&lt;div&gt;&lt;span style=&quot;color: #c5c8c6;&quot;&gt;    &lt;/span&gt;&lt;span style=&quot;color: #6089b4;&quot;&gt;table&lt;/span&gt;&lt;span style=&quot;color: #c5c8c6;&quot;&gt;.&lt;/span&gt;&lt;span style=&quot;color: #c7444a;&quot;&gt;innerHTML&lt;/span&gt;&lt;span style=&quot;color: #c5c8c6;&quot;&gt; &lt;/span&gt;&lt;span style=&quot;color: #676867;&quot;&gt;=&lt;/span&gt;&lt;span style=&quot;color: #c5c8c6;&quot;&gt; &lt;/span&gt;&lt;span style=&quot;color: #9aa83a;&quot;&gt;''&lt;/span&gt;&lt;span style=&quot;color: #c5c8c6;&quot;&gt;; &lt;/span&gt;&lt;span style=&quot;color: #9a9b99;&quot;&gt;// Clear existing table content&lt;/span&gt;&lt;/div&gt;&lt;div&gt;&lt;span style=&quot;color: #c5c8c6;&quot;&gt;    &lt;/span&gt;&lt;span style=&quot;color: #6089b4;&quot;&gt;tickets&lt;/span&gt;&lt;span style=&quot;color: #c5c8c6;&quot;&gt;.&lt;/span&gt;&lt;span style=&quot;color: #ce6700;&quot;&gt;forEach&lt;/span&gt;&lt;span style=&quot;color: #c5c8c6;&quot;&gt;((&lt;/span&gt;&lt;span style=&quot;color: #6089b4;&quot;&gt;ticket&lt;/span&gt;&lt;span style=&quot;color: #c5c8c6;&quot;&gt;, &lt;/span&gt;&lt;span style=&quot;color: #6089b4;&quot;&gt;index&lt;/span&gt;&lt;span style=&quot;color: #c5c8c6;&quot;&gt;) &lt;/span&gt;&lt;span style=&quot;color: #9872a2;&quot;&gt;=&amp;gt;&lt;/span&gt;&lt;span style=&quot;color: #c5c8c6;&quot;&gt; {&lt;/span&gt;&lt;/div&gt;&lt;div&gt;&lt;span style=&quot;color: #c5c8c6;&quot;&gt;        &lt;/span&gt;&lt;span style=&quot;color: #ce6700;&quot;&gt;addTicketToTable&lt;/span&gt;&lt;span style=&quot;color: #c5c8c6;&quot;&gt;(&lt;/span&gt;&lt;span style=&quot;color: #6089b4;&quot;&gt;ticket&lt;/span&gt;&lt;span style=&quot;color: #c5c8c6;&quot;&gt;, &lt;/span&gt;&lt;span style=&quot;color: #6089b4;&quot;&gt;index&lt;/span&gt;&lt;span style=&quot;color: #c5c8c6;&quot;&gt;);&lt;/span&gt;&lt;/div&gt;&lt;div&gt;&lt;span style=&quot;color: #c5c8c6;&quot;&gt;    });&lt;/span&gt;&lt;/div&gt;&lt;div&gt;&lt;span style=&quot;color: #c5c8c6;&quot;&gt;}&lt;/span&gt;&lt;/div&gt;&lt;/div&gt;" style="text;whiteSpace=wrap;html=1;fontSize=20;fontFamily=Architects Daughter;" vertex="1" parent="1">
                    <mxGeometry x="-1070" y="585" width="560" height="230" as="geometry"/>
                </mxCell>
                <mxCell id="20" style="edgeStyle=none;sketch=1;hachureGap=4;jiggle=2;curveFitting=1;html=1;fontFamily=Architects Daughter;fontSource=https%3A%2F%2Ffonts.googleapis.com%2Fcss%3Ffamily%3DArchitects%2BDaughter;fontSize=16;" edge="1" parent="1" source="6" target="5">
                    <mxGeometry relative="1" as="geometry"/>
                </mxCell>
                <mxCell id="6" value="&lt;meta charset=&quot;utf-8&quot;&gt;&lt;div style=&quot;color: rgb(197, 200, 198); background-color: rgb(30, 30, 30); font-family: Menlo, Monaco, &amp;quot;Courier New&amp;quot;, monospace; font-weight: normal; font-size: 15px; line-height: 23px;&quot;&gt;&lt;div&gt;&lt;span style=&quot;color: #9a9b99;&quot;&gt;// Function to delete a ticket from the tickets array and update the table&lt;/span&gt;&lt;/div&gt;&lt;div&gt;&lt;span style=&quot;color: #9872a2;&quot;&gt;function&lt;/span&gt;&lt;span style=&quot;color: #c5c8c6;&quot;&gt; &lt;/span&gt;&lt;span style=&quot;color: #ce6700;&quot;&gt;deleteTicket&lt;/span&gt;&lt;span style=&quot;color: #c5c8c6;&quot;&gt;(&lt;/span&gt;&lt;span style=&quot;color: #6089b4;&quot;&gt;index&lt;/span&gt;&lt;span style=&quot;color: #c5c8c6;&quot;&gt;) {&lt;/span&gt;&lt;/div&gt;&lt;div&gt;&lt;span style=&quot;color: #c5c8c6;&quot;&gt;    &lt;/span&gt;&lt;span style=&quot;color: #6089b4;&quot;&gt;tickets&lt;/span&gt;&lt;span style=&quot;color: #c5c8c6;&quot;&gt;.&lt;/span&gt;&lt;span style=&quot;color: #ce6700;&quot;&gt;splice&lt;/span&gt;&lt;span style=&quot;color: #c5c8c6;&quot;&gt;(&lt;/span&gt;&lt;span style=&quot;color: #6089b4;&quot;&gt;index&lt;/span&gt;&lt;span style=&quot;color: #c5c8c6;&quot;&gt;, &lt;/span&gt;&lt;span style=&quot;color: #6089b4;&quot;&gt;1&lt;/span&gt;&lt;span style=&quot;color: #c5c8c6;&quot;&gt;); &lt;/span&gt;&lt;span style=&quot;color: #9a9b99;&quot;&gt;// Remove the ticket at the given index&lt;/span&gt;&lt;/div&gt;&lt;div&gt;&lt;span style=&quot;color: #c5c8c6;&quot;&gt;    &lt;/span&gt;&lt;span style=&quot;color: #ce6700;&quot;&gt;updateTicketsTable&lt;/span&gt;&lt;span style=&quot;color: #c5c8c6;&quot;&gt;();&lt;/span&gt;&lt;/div&gt;&lt;div&gt;&lt;span style=&quot;color: #c5c8c6;&quot;&gt;}&lt;/span&gt;&lt;/div&gt;&lt;/div&gt;" style="text;whiteSpace=wrap;html=1;fontSize=20;fontFamily=Architects Daughter;" vertex="1" parent="1">
                    <mxGeometry x="-973" y="960" width="560" height="180" as="geometry"/>
                </mxCell>
                <mxCell id="8" value="&lt;meta charset=&quot;utf-8&quot;&gt;&lt;div style=&quot;color: rgb(197, 200, 198); background-color: rgb(30, 30, 30); font-family: Menlo, Monaco, &amp;quot;Courier New&amp;quot;, monospace; font-weight: normal; font-size: 15px; line-height: 23px;&quot;&gt;&lt;div&gt;&lt;span style=&quot;color: #9a9b99;&quot;&gt;// Function to add a single ticket to the table&lt;/span&gt;&lt;/div&gt;&lt;div&gt;&lt;span style=&quot;color: #9872a2;&quot;&gt;function&lt;/span&gt;&lt;span style=&quot;color: #c5c8c6;&quot;&gt; &lt;/span&gt;&lt;span style=&quot;color: #ce6700;&quot;&gt;addTicketToTable&lt;/span&gt;&lt;span style=&quot;color: #c5c8c6;&quot;&gt;(&lt;/span&gt;&lt;span style=&quot;color: #6089b4;&quot;&gt;ticket&lt;/span&gt;&lt;span style=&quot;color: #c5c8c6;&quot;&gt;, &lt;/span&gt;&lt;span style=&quot;color: #6089b4;&quot;&gt;index&lt;/span&gt;&lt;span style=&quot;color: #c5c8c6;&quot;&gt;) {&lt;/span&gt;&lt;/div&gt;&lt;div&gt;&lt;span style=&quot;color: #c5c8c6;&quot;&gt;    &lt;/span&gt;&lt;span style=&quot;color: #9872a2;&quot;&gt;const&lt;/span&gt;&lt;span style=&quot;color: #c5c8c6;&quot;&gt; &lt;/span&gt;&lt;span style=&quot;color: #6089b4;&quot;&gt;table&lt;/span&gt;&lt;span style=&quot;color: #c5c8c6;&quot;&gt; &lt;/span&gt;&lt;span style=&quot;color: #676867;&quot;&gt;=&lt;/span&gt;&lt;span style=&quot;color: #c5c8c6;&quot;&gt; &lt;/span&gt;&lt;span style=&quot;color: #c7444a;&quot;&gt;document&lt;/span&gt;&lt;span style=&quot;color: #c5c8c6;&quot;&gt;.&lt;/span&gt;&lt;span style=&quot;color: #ce6700;&quot;&gt;getElementById&lt;/span&gt;&lt;span style=&quot;color: #c5c8c6;&quot;&gt;(&lt;/span&gt;&lt;span style=&quot;color: #9aa83a;&quot;&gt;'ticketsTable'&lt;/span&gt;&lt;span style=&quot;color: #c5c8c6;&quot;&gt;);&lt;/span&gt;&lt;/div&gt;&lt;div&gt;&lt;span style=&quot;color: #c5c8c6;&quot;&gt;    &lt;/span&gt;&lt;span style=&quot;color: #9872a2;&quot;&gt;const&lt;/span&gt;&lt;span style=&quot;color: #c5c8c6;&quot;&gt; &lt;/span&gt;&lt;span style=&quot;color: #6089b4;&quot;&gt;row&lt;/span&gt;&lt;span style=&quot;color: #c5c8c6;&quot;&gt; &lt;/span&gt;&lt;span style=&quot;color: #676867;&quot;&gt;=&lt;/span&gt;&lt;span style=&quot;color: #c5c8c6;&quot;&gt; &lt;/span&gt;&lt;span style=&quot;color: #c7444a;&quot;&gt;document&lt;/span&gt;&lt;span style=&quot;color: #c5c8c6;&quot;&gt;.&lt;/span&gt;&lt;span style=&quot;color: #ce6700;&quot;&gt;createElement&lt;/span&gt;&lt;span style=&quot;color: #c5c8c6;&quot;&gt;(&lt;/span&gt;&lt;span style=&quot;color: #9aa83a;&quot;&gt;'tr'&lt;/span&gt;&lt;span style=&quot;color: #c5c8c6;&quot;&gt;);&lt;/span&gt;&lt;/div&gt;&lt;br&gt;&lt;div&gt;&lt;span style=&quot;color: #c5c8c6;&quot;&gt;    &lt;/span&gt;&lt;span style=&quot;color: #9a9b99;&quot;&gt;// Create and populate the cell for the ticket number&lt;/span&gt;&lt;/div&gt;&lt;div&gt;&lt;span style=&quot;color: #c5c8c6;&quot;&gt;    &lt;/span&gt;&lt;span style=&quot;color: #9872a2;&quot;&gt;const&lt;/span&gt;&lt;span style=&quot;color: #c5c8c6;&quot;&gt; &lt;/span&gt;&lt;span style=&quot;color: #6089b4;&quot;&gt;ticketNumberCell&lt;/span&gt;&lt;span style=&quot;color: #c5c8c6;&quot;&gt; &lt;/span&gt;&lt;span style=&quot;color: #676867;&quot;&gt;=&lt;/span&gt;&lt;span style=&quot;color: #c5c8c6;&quot;&gt; &lt;/span&gt;&lt;span style=&quot;color: #c7444a;&quot;&gt;document&lt;/span&gt;&lt;span style=&quot;color: #c5c8c6;&quot;&gt;.&lt;/span&gt;&lt;span style=&quot;color: #ce6700;&quot;&gt;createElement&lt;/span&gt;&lt;span style=&quot;color: #c5c8c6;&quot;&gt;(&lt;/span&gt;&lt;span style=&quot;color: #9aa83a;&quot;&gt;'td'&lt;/span&gt;&lt;span style=&quot;color: #c5c8c6;&quot;&gt;);&lt;/span&gt;&lt;/div&gt;&lt;div&gt;&lt;span style=&quot;color: #c5c8c6;&quot;&gt;    &lt;/span&gt;&lt;span style=&quot;color: #6089b4;&quot;&gt;ticketNumberCell&lt;/span&gt;&lt;span style=&quot;color: #c5c8c6;&quot;&gt;.&lt;/span&gt;&lt;span style=&quot;color: #c7444a;&quot;&gt;className&lt;/span&gt;&lt;span style=&quot;color: #c5c8c6;&quot;&gt; &lt;/span&gt;&lt;span style=&quot;color: #676867;&quot;&gt;=&lt;/span&gt;&lt;span style=&quot;color: #c5c8c6;&quot;&gt; &lt;/span&gt;&lt;span style=&quot;color: #9aa83a;&quot;&gt;'py-2 text-center'&lt;/span&gt;&lt;span style=&quot;color: #c5c8c6;&quot;&gt;;&lt;/span&gt;&lt;/div&gt;&lt;div&gt;&lt;span style=&quot;color: #c5c8c6;&quot;&gt;    &lt;/span&gt;&lt;span style=&quot;color: #6089b4;&quot;&gt;ticketNumberCell&lt;/span&gt;&lt;span style=&quot;color: #c5c8c6;&quot;&gt;.&lt;/span&gt;&lt;span style=&quot;color: #c7444a;&quot;&gt;innerText&lt;/span&gt;&lt;span style=&quot;color: #c5c8c6;&quot;&gt; &lt;/span&gt;&lt;span style=&quot;color: #676867;&quot;&gt;=&lt;/span&gt;&lt;span style=&quot;color: #c5c8c6;&quot;&gt; &lt;/span&gt;&lt;span style=&quot;color: #6089b4;&quot;&gt;index&lt;/span&gt;&lt;span style=&quot;color: #c5c8c6;&quot;&gt; &lt;/span&gt;&lt;span style=&quot;color: #676867;&quot;&gt;+&lt;/span&gt;&lt;span style=&quot;color: #c5c8c6;&quot;&gt; &lt;/span&gt;&lt;span style=&quot;color: #6089b4;&quot;&gt;1&lt;/span&gt;&lt;span style=&quot;color: #c5c8c6;&quot;&gt;;&lt;/span&gt;&lt;/div&gt;&lt;br&gt;&lt;div&gt;&lt;span style=&quot;color: #c5c8c6;&quot;&gt;    &lt;/span&gt;&lt;span style=&quot;color: #9a9b99;&quot;&gt;// Create and populate the cell for the lottery numbers&lt;/span&gt;&lt;/div&gt;&lt;div&gt;&lt;span style=&quot;color: #c5c8c6;&quot;&gt;    &lt;/span&gt;&lt;span style=&quot;color: #9872a2;&quot;&gt;const&lt;/span&gt;&lt;span style=&quot;color: #c5c8c6;&quot;&gt; &lt;/span&gt;&lt;span style=&quot;color: #6089b4;&quot;&gt;numbersCell&lt;/span&gt;&lt;span style=&quot;color: #c5c8c6;&quot;&gt; &lt;/span&gt;&lt;span style=&quot;color: #676867;&quot;&gt;=&lt;/span&gt;&lt;span style=&quot;color: #c5c8c6;&quot;&gt; &lt;/span&gt;&lt;span style=&quot;color: #c7444a;&quot;&gt;document&lt;/span&gt;&lt;span style=&quot;color: #c5c8c6;&quot;&gt;.&lt;/span&gt;&lt;span style=&quot;color: #ce6700;&quot;&gt;createElement&lt;/span&gt;&lt;span style=&quot;color: #c5c8c6;&quot;&gt;(&lt;/span&gt;&lt;span style=&quot;color: #9aa83a;&quot;&gt;'td'&lt;/span&gt;&lt;span style=&quot;color: #c5c8c6;&quot;&gt;);&lt;/span&gt;&lt;/div&gt;&lt;div&gt;&lt;span style=&quot;color: #c5c8c6;&quot;&gt;    &lt;/span&gt;&lt;span style=&quot;color: #6089b4;&quot;&gt;numbersCell&lt;/span&gt;&lt;span style=&quot;color: #c5c8c6;&quot;&gt;.&lt;/span&gt;&lt;span style=&quot;color: #c7444a;&quot;&gt;className&lt;/span&gt;&lt;span style=&quot;color: #c5c8c6;&quot;&gt; &lt;/span&gt;&lt;span style=&quot;color: #676867;&quot;&gt;=&lt;/span&gt;&lt;span style=&quot;color: #c5c8c6;&quot;&gt; &lt;/span&gt;&lt;span style=&quot;color: #9aa83a;&quot;&gt;'py-2 text-center'&lt;/span&gt;&lt;span style=&quot;color: #c5c8c6;&quot;&gt;;&lt;/span&gt;&lt;/div&gt;&lt;div&gt;&lt;span style=&quot;color: #c5c8c6;&quot;&gt;    &lt;/span&gt;&lt;span style=&quot;color: #6089b4;&quot;&gt;numbersCell&lt;/span&gt;&lt;span style=&quot;color: #c5c8c6;&quot;&gt;.&lt;/span&gt;&lt;span style=&quot;color: #c7444a;&quot;&gt;innerText&lt;/span&gt;&lt;span style=&quot;color: #c5c8c6;&quot;&gt; &lt;/span&gt;&lt;span style=&quot;color: #676867;&quot;&gt;=&lt;/span&gt;&lt;span style=&quot;color: #c5c8c6;&quot;&gt; &lt;/span&gt;&lt;span style=&quot;color: #6089b4;&quot;&gt;ticket&lt;/span&gt;&lt;span style=&quot;color: #c5c8c6;&quot;&gt;.&lt;/span&gt;&lt;span style=&quot;color: #6089b4;&quot;&gt;numbers&lt;/span&gt;&lt;span style=&quot;color: #c5c8c6;&quot;&gt;.&lt;/span&gt;&lt;span style=&quot;color: #ce6700;&quot;&gt;join&lt;/span&gt;&lt;span style=&quot;color: #c5c8c6;&quot;&gt;(&lt;/span&gt;&lt;span style=&quot;color: #9aa83a;&quot;&gt;', '&lt;/span&gt;&lt;span style=&quot;color: #c5c8c6;&quot;&gt;);&lt;/span&gt;&lt;/div&gt;&lt;br&gt;&lt;div&gt;&lt;span style=&quot;color: #c5c8c6;&quot;&gt;    &lt;/span&gt;&lt;span style=&quot;color: #9a9b99;&quot;&gt;// Create and populate the cell for the delete button&lt;/span&gt;&lt;/div&gt;&lt;div&gt;&lt;span style=&quot;color: #c5c8c6;&quot;&gt;    &lt;/span&gt;&lt;span style=&quot;color: #9872a2;&quot;&gt;const&lt;/span&gt;&lt;span style=&quot;color: #c5c8c6;&quot;&gt; &lt;/span&gt;&lt;span style=&quot;color: #6089b4;&quot;&gt;deleteButtonCell&lt;/span&gt;&lt;span style=&quot;color: #c5c8c6;&quot;&gt; &lt;/span&gt;&lt;span style=&quot;color: #676867;&quot;&gt;=&lt;/span&gt;&lt;span style=&quot;color: #c5c8c6;&quot;&gt; &lt;/span&gt;&lt;span style=&quot;color: #c7444a;&quot;&gt;document&lt;/span&gt;&lt;span style=&quot;color: #c5c8c6;&quot;&gt;.&lt;/span&gt;&lt;span style=&quot;color: #ce6700;&quot;&gt;createElement&lt;/span&gt;&lt;span style=&quot;color: #c5c8c6;&quot;&gt;(&lt;/span&gt;&lt;span style=&quot;color: #9aa83a;&quot;&gt;'td'&lt;/span&gt;&lt;span style=&quot;color: #c5c8c6;&quot;&gt;);&lt;/span&gt;&lt;/div&gt;&lt;div&gt;&lt;span style=&quot;color: #c5c8c6;&quot;&gt;    &lt;/span&gt;&lt;span style=&quot;color: #6089b4;&quot;&gt;deleteButtonCell&lt;/span&gt;&lt;span style=&quot;color: #c5c8c6;&quot;&gt;.&lt;/span&gt;&lt;span style=&quot;color: #c7444a;&quot;&gt;className&lt;/span&gt;&lt;span style=&quot;color: #c5c8c6;&quot;&gt; &lt;/span&gt;&lt;span style=&quot;color: #676867;&quot;&gt;=&lt;/span&gt;&lt;span style=&quot;color: #c5c8c6;&quot;&gt; &lt;/span&gt;&lt;span style=&quot;color: #9aa83a;&quot;&gt;'py-2 text-center'&lt;/span&gt;&lt;span style=&quot;color: #c5c8c6;&quot;&gt;;&lt;/span&gt;&lt;/div&gt;&lt;div&gt;&lt;span style=&quot;color: #c5c8c6;&quot;&gt;    &lt;/span&gt;&lt;span style=&quot;color: #9872a2;&quot;&gt;const&lt;/span&gt;&lt;span style=&quot;color: #c5c8c6;&quot;&gt; &lt;/span&gt;&lt;span style=&quot;color: #6089b4;&quot;&gt;deleteButton&lt;/span&gt;&lt;span style=&quot;color: #c5c8c6;&quot;&gt; &lt;/span&gt;&lt;span style=&quot;color: #676867;&quot;&gt;=&lt;/span&gt;&lt;span style=&quot;color: #c5c8c6;&quot;&gt; &lt;/span&gt;&lt;span style=&quot;color: #c7444a;&quot;&gt;document&lt;/span&gt;&lt;span style=&quot;color: #c5c8c6;&quot;&gt;.&lt;/span&gt;&lt;span style=&quot;color: #ce6700;&quot;&gt;createElement&lt;/span&gt;&lt;span style=&quot;color: #c5c8c6;&quot;&gt;(&lt;/span&gt;&lt;span style=&quot;color: #9aa83a;&quot;&gt;'button'&lt;/span&gt;&lt;span style=&quot;color: #c5c8c6;&quot;&gt;);&lt;/span&gt;&lt;/div&gt;&lt;div&gt;&lt;span style=&quot;color: #c5c8c6;&quot;&gt;    &lt;/span&gt;&lt;span style=&quot;color: #6089b4;&quot;&gt;deleteButton&lt;/span&gt;&lt;span style=&quot;color: #c5c8c6;&quot;&gt;.&lt;/span&gt;&lt;span style=&quot;color: #c7444a;&quot;&gt;className&lt;/span&gt;&lt;span style=&quot;color: #c5c8c6;&quot;&gt; &lt;/span&gt;&lt;span style=&quot;color: #676867;&quot;&gt;=&lt;/span&gt;&lt;span style=&quot;color: #c5c8c6;&quot;&gt; &lt;/span&gt;&lt;span style=&quot;color: #9aa83a;&quot;&gt;'bg-red-500 hover:bg-red-700 text-white font-bold py-1 px-2 rounded'&lt;/span&gt;&lt;span style=&quot;color: #c5c8c6;&quot;&gt;;&lt;/span&gt;&lt;/div&gt;&lt;div&gt;&lt;span style=&quot;color: #c5c8c6;&quot;&gt;    &lt;/span&gt;&lt;span style=&quot;color: #6089b4;&quot;&gt;deleteButton&lt;/span&gt;&lt;span style=&quot;color: #c5c8c6;&quot;&gt;.&lt;/span&gt;&lt;span style=&quot;color: #c7444a;&quot;&gt;innerText&lt;/span&gt;&lt;span style=&quot;color: #c5c8c6;&quot;&gt; &lt;/span&gt;&lt;span style=&quot;color: #676867;&quot;&gt;=&lt;/span&gt;&lt;span style=&quot;color: #c5c8c6;&quot;&gt; &lt;/span&gt;&lt;span style=&quot;color: #9aa83a;&quot;&gt;'X'&lt;/span&gt;&lt;span style=&quot;color: #c5c8c6;&quot;&gt;;&lt;/span&gt;&lt;/div&gt;&lt;div&gt;&lt;span style=&quot;color: #c5c8c6;&quot;&gt;    &lt;/span&gt;&lt;span style=&quot;color: #6089b4;&quot;&gt;deleteButton&lt;/span&gt;&lt;span style=&quot;color: #c5c8c6;&quot;&gt;.&lt;/span&gt;&lt;span style=&quot;color: #ce6700;&quot;&gt;addEventListener&lt;/span&gt;&lt;span style=&quot;color: #c5c8c6;&quot;&gt;(&lt;/span&gt;&lt;span style=&quot;color: #9aa83a;&quot;&gt;'click'&lt;/span&gt;&lt;span style=&quot;color: #c5c8c6;&quot;&gt;, () &lt;/span&gt;&lt;span style=&quot;color: #9872a2;&quot;&gt;=&amp;gt;&lt;/span&gt;&lt;span style=&quot;color: #c5c8c6;&quot;&gt; {&lt;/span&gt;&lt;/div&gt;&lt;div&gt;&lt;span style=&quot;color: #c5c8c6;&quot;&gt;        &lt;/span&gt;&lt;span style=&quot;color: #ce6700;&quot;&gt;deleteTicket&lt;/span&gt;&lt;span style=&quot;color: #c5c8c6;&quot;&gt;(&lt;/span&gt;&lt;span style=&quot;color: #6089b4;&quot;&gt;index&lt;/span&gt;&lt;span style=&quot;color: #c5c8c6;&quot;&gt;);&lt;/span&gt;&lt;/div&gt;&lt;div&gt;&lt;span style=&quot;color: #c5c8c6;&quot;&gt;    });&lt;/span&gt;&lt;/div&gt;&lt;div&gt;&lt;span style=&quot;color: #c5c8c6;&quot;&gt;    &lt;/span&gt;&lt;span style=&quot;color: #6089b4;&quot;&gt;deleteButtonCell&lt;/span&gt;&lt;span style=&quot;color: #c5c8c6;&quot;&gt;.&lt;/span&gt;&lt;span style=&quot;color: #ce6700;&quot;&gt;appendChild&lt;/span&gt;&lt;span style=&quot;color: #c5c8c6;&quot;&gt;(&lt;/span&gt;&lt;span style=&quot;color: #6089b4;&quot;&gt;deleteButton&lt;/span&gt;&lt;span style=&quot;color: #c5c8c6;&quot;&gt;);&lt;/span&gt;&lt;/div&gt;&lt;br&gt;&lt;div&gt;&lt;span style=&quot;color: #c5c8c6;&quot;&gt;    &lt;/span&gt;&lt;span style=&quot;color: #9a9b99;&quot;&gt;// Append all cells to the row and the row to the table&lt;/span&gt;&lt;/div&gt;&lt;div&gt;&lt;span style=&quot;color: #c5c8c6;&quot;&gt;    &lt;/span&gt;&lt;span style=&quot;color: #6089b4;&quot;&gt;row&lt;/span&gt;&lt;span style=&quot;color: #c5c8c6;&quot;&gt;.&lt;/span&gt;&lt;span style=&quot;color: #ce6700;&quot;&gt;appendChild&lt;/span&gt;&lt;span style=&quot;color: #c5c8c6;&quot;&gt;(&lt;/span&gt;&lt;span style=&quot;color: #6089b4;&quot;&gt;ticketNumberCell&lt;/span&gt;&lt;span style=&quot;color: #c5c8c6;&quot;&gt;);&lt;/span&gt;&lt;/div&gt;&lt;div&gt;&lt;span style=&quot;color: #c5c8c6;&quot;&gt;    &lt;/span&gt;&lt;span style=&quot;color: #6089b4;&quot;&gt;row&lt;/span&gt;&lt;span style=&quot;color: #c5c8c6;&quot;&gt;.&lt;/span&gt;&lt;span style=&quot;color: #ce6700;&quot;&gt;appendChild&lt;/span&gt;&lt;span style=&quot;color: #c5c8c6;&quot;&gt;(&lt;/span&gt;&lt;span style=&quot;color: #6089b4;&quot;&gt;numbersCell&lt;/span&gt;&lt;span style=&quot;color: #c5c8c6;&quot;&gt;);&lt;/span&gt;&lt;/div&gt;&lt;div&gt;&lt;span style=&quot;color: #c5c8c6;&quot;&gt;    &lt;/span&gt;&lt;span style=&quot;color: #6089b4;&quot;&gt;row&lt;/span&gt;&lt;span style=&quot;color: #c5c8c6;&quot;&gt;.&lt;/span&gt;&lt;span style=&quot;color: #ce6700;&quot;&gt;appendChild&lt;/span&gt;&lt;span style=&quot;color: #c5c8c6;&quot;&gt;(&lt;/span&gt;&lt;span style=&quot;color: #6089b4;&quot;&gt;deleteButtonCell&lt;/span&gt;&lt;span style=&quot;color: #c5c8c6;&quot;&gt;);&lt;/span&gt;&lt;/div&gt;&lt;div&gt;&lt;span style=&quot;color: #c5c8c6;&quot;&gt;    &lt;/span&gt;&lt;span style=&quot;color: #6089b4;&quot;&gt;table&lt;/span&gt;&lt;span style=&quot;color: #c5c8c6;&quot;&gt;.&lt;/span&gt;&lt;span style=&quot;color: #ce6700;&quot;&gt;appendChild&lt;/span&gt;&lt;span style=&quot;color: #c5c8c6;&quot;&gt;(&lt;/span&gt;&lt;span style=&quot;color: #6089b4;&quot;&gt;row&lt;/span&gt;&lt;span style=&quot;color: #c5c8c6;&quot;&gt;);&lt;/span&gt;&lt;/div&gt;&lt;div&gt;&lt;span style=&quot;color: #c5c8c6;&quot;&gt;}&lt;/span&gt;&lt;/div&gt;&lt;/div&gt;" style="text;whiteSpace=wrap;html=1;fontSize=20;fontFamily=Architects Daughter;" vertex="1" parent="1">
                    <mxGeometry x="-190" y="410" width="560" height="780" as="geometry"/>
                </mxCell>
                <mxCell id="15" style="edgeStyle=none;sketch=1;hachureGap=4;jiggle=2;curveFitting=1;html=1;entryX=0;entryY=0.75;entryDx=0;entryDy=0;fontFamily=Architects Daughter;fontSource=https%3A%2F%2Ffonts.googleapis.com%2Fcss%3Ffamily%3DArchitects%2BDaughter;fontSize=16;" edge="1" parent="1" source="9" target="14">
                    <mxGeometry relative="1" as="geometry"/>
                </mxCell>
                <mxCell id="9" value="&lt;meta charset=&quot;utf-8&quot;&gt;&lt;div style=&quot;color: rgb(197, 200, 198); background-color: rgb(30, 30, 30); font-family: Menlo, Monaco, &amp;quot;Courier New&amp;quot;, monospace; font-weight: normal; font-size: 15px; line-height: 23px;&quot;&gt;&lt;div&gt;&lt;span style=&quot;color: #c5c8c6;&quot;&gt; &lt;/span&gt;&lt;span style=&quot;color: #ce6700;&quot;&gt;generateUniqueNumbers&lt;/span&gt;&lt;span style=&quot;color: #c5c8c6;&quot;&gt;(&lt;/span&gt;&lt;span style=&quot;color: #6089b4;&quot;&gt;callback&lt;/span&gt;&lt;span style=&quot;color: #c5c8c6;&quot;&gt;, &lt;/span&gt;&lt;span style=&quot;color: #6089b4;&quot;&gt;retries&lt;/span&gt;&lt;span style=&quot;color: #c5c8c6;&quot;&gt; &lt;/span&gt;&lt;span style=&quot;color: #676867;&quot;&gt;=&lt;/span&gt;&lt;span style=&quot;color: #c5c8c6;&quot;&gt; &lt;/span&gt;&lt;span style=&quot;color: #6089b4;&quot;&gt;5&lt;/span&gt;&lt;span style=&quot;color: #c5c8c6;&quot;&gt;) {&lt;/span&gt;&lt;/div&gt;&lt;div&gt;&lt;span style=&quot;color: #c5c8c6;&quot;&gt;        &lt;/span&gt;&lt;span style=&quot;color: #9872a2;&quot;&gt;const&lt;/span&gt;&lt;span style=&quot;color: #c5c8c6;&quot;&gt; &lt;/span&gt;&lt;span style=&quot;color: #6089b4;&quot;&gt;xhr&lt;/span&gt;&lt;span style=&quot;color: #c5c8c6;&quot;&gt; &lt;/span&gt;&lt;span style=&quot;color: #676867;&quot;&gt;=&lt;/span&gt;&lt;span style=&quot;color: #c5c8c6;&quot;&gt; &lt;/span&gt;&lt;span style=&quot;color: #676867;&quot;&gt;new&lt;/span&gt;&lt;span style=&quot;color: #c5c8c6;&quot;&gt; &lt;/span&gt;&lt;span style=&quot;color: #c7444a;&quot;&gt;XMLHttpRequest&lt;/span&gt;&lt;span style=&quot;color: #c5c8c6;&quot;&gt;();&lt;/span&gt;&lt;/div&gt;&lt;div&gt;&lt;span style=&quot;color: #c5c8c6;&quot;&gt;        &lt;/span&gt;&lt;span style=&quot;color: #6089b4;&quot;&gt;xhr&lt;/span&gt;&lt;span style=&quot;color: #c5c8c6;&quot;&gt;.&lt;/span&gt;&lt;span style=&quot;color: #ce6700;&quot;&gt;open&lt;/span&gt;&lt;span style=&quot;color: #c5c8c6;&quot;&gt;(&lt;/span&gt;&lt;span style=&quot;color: #9aa83a;&quot;&gt;'GET'&lt;/span&gt;&lt;span style=&quot;color: #c5c8c6;&quot;&gt;, &lt;/span&gt;&lt;span style=&quot;color: #9aa83a;&quot;&gt;'https://corsproxy.io/?http://www.randomnumberapi.com/api/v1.0/random?min=1&amp;amp;max=49&amp;amp;count=7'&lt;/span&gt;&lt;span style=&quot;color: #c5c8c6;&quot;&gt;, &lt;/span&gt;&lt;span style=&quot;color: #408080;&quot;&gt;true&lt;/span&gt;&lt;span style=&quot;color: #c5c8c6;&quot;&gt;);&lt;/span&gt;&lt;/div&gt;&lt;div&gt;&lt;span style=&quot;color: #c5c8c6;&quot;&gt;        &lt;/span&gt;&lt;span style=&quot;color: #6089b4;&quot;&gt;xhr&lt;/span&gt;&lt;span style=&quot;color: #c5c8c6;&quot;&gt;.&lt;/span&gt;&lt;span style=&quot;color: #ce6700;&quot;&gt;onreadystatechange&lt;/span&gt;&lt;span style=&quot;color: #c5c8c6;&quot;&gt; &lt;/span&gt;&lt;span style=&quot;color: #676867;&quot;&gt;=&lt;/span&gt;&lt;span style=&quot;color: #c5c8c6;&quot;&gt; () &lt;/span&gt;&lt;span style=&quot;color: #9872a2;&quot;&gt;=&amp;gt;&lt;/span&gt;&lt;span style=&quot;color: #c5c8c6;&quot;&gt; {&lt;/span&gt;&lt;/div&gt;&lt;div&gt;&lt;span style=&quot;color: #c5c8c6;&quot;&gt;            &lt;/span&gt;&lt;span style=&quot;color: #9872a2;&quot;&gt;if&lt;/span&gt;&lt;span style=&quot;color: #c5c8c6;&quot;&gt; (&lt;/span&gt;&lt;span style=&quot;color: #6089b4;&quot;&gt;xhr&lt;/span&gt;&lt;span style=&quot;color: #c5c8c6;&quot;&gt;.&lt;/span&gt;&lt;span style=&quot;color: #c7444a;&quot;&gt;readyState&lt;/span&gt;&lt;span style=&quot;color: #c5c8c6;&quot;&gt; &lt;/span&gt;&lt;span style=&quot;color: #676867;&quot;&gt;===&lt;/span&gt;&lt;span style=&quot;color: #c5c8c6;&quot;&gt; &lt;/span&gt;&lt;span style=&quot;color: #6089b4;&quot;&gt;4&lt;/span&gt;&lt;span style=&quot;color: #c5c8c6;&quot;&gt;) {&lt;/span&gt;&lt;/div&gt;&lt;div&gt;&lt;span style=&quot;color: #c5c8c6;&quot;&gt;                &lt;/span&gt;&lt;span style=&quot;color: #9872a2;&quot;&gt;if&lt;/span&gt;&lt;span style=&quot;color: #c5c8c6;&quot;&gt; (&lt;/span&gt;&lt;span style=&quot;color: #6089b4;&quot;&gt;xhr&lt;/span&gt;&lt;span style=&quot;color: #c5c8c6;&quot;&gt;.&lt;/span&gt;&lt;span style=&quot;color: #c7444a;&quot;&gt;status&lt;/span&gt;&lt;span style=&quot;color: #c5c8c6;&quot;&gt; &lt;/span&gt;&lt;span style=&quot;color: #676867;&quot;&gt;===&lt;/span&gt;&lt;span style=&quot;color: #c5c8c6;&quot;&gt; &lt;/span&gt;&lt;span style=&quot;color: #6089b4;&quot;&gt;200&lt;/span&gt;&lt;span style=&quot;color: #c5c8c6;&quot;&gt;) {&lt;/span&gt;&lt;/div&gt;&lt;div&gt;&lt;span style=&quot;color: #c5c8c6;&quot;&gt;                    &lt;/span&gt;&lt;span style=&quot;color: #9872a2;&quot;&gt;const&lt;/span&gt;&lt;span style=&quot;color: #c5c8c6;&quot;&gt; &lt;/span&gt;&lt;span style=&quot;color: #6089b4;&quot;&gt;numbers&lt;/span&gt;&lt;span style=&quot;color: #c5c8c6;&quot;&gt; &lt;/span&gt;&lt;span style=&quot;color: #676867;&quot;&gt;=&lt;/span&gt;&lt;span style=&quot;color: #c5c8c6;&quot;&gt; &lt;/span&gt;&lt;span style=&quot;color: #c7444a;&quot;&gt;JSON&lt;/span&gt;&lt;span style=&quot;color: #c5c8c6;&quot;&gt;.&lt;/span&gt;&lt;span style=&quot;color: #ce6700;&quot;&gt;parse&lt;/span&gt;&lt;span style=&quot;color: #c5c8c6;&quot;&gt;(&lt;/span&gt;&lt;span style=&quot;color: #6089b4;&quot;&gt;xhr&lt;/span&gt;&lt;span style=&quot;color: #c5c8c6;&quot;&gt;.&lt;/span&gt;&lt;span style=&quot;color: #c7444a;&quot;&gt;responseText&lt;/span&gt;&lt;span style=&quot;color: #c5c8c6;&quot;&gt;);&lt;/span&gt;&lt;/div&gt;&lt;div&gt;&lt;span style=&quot;color: #c5c8c6;&quot;&gt;                    &lt;/span&gt;&lt;span style=&quot;color: #9872a2;&quot;&gt;let&lt;/span&gt;&lt;span style=&quot;color: #c5c8c6;&quot;&gt; &lt;/span&gt;&lt;span style=&quot;color: #6089b4;&quot;&gt;uniqueNumbers&lt;/span&gt;&lt;span style=&quot;color: #c5c8c6;&quot;&gt; &lt;/span&gt;&lt;span style=&quot;color: #676867;&quot;&gt;=&lt;/span&gt;&lt;span style=&quot;color: #c5c8c6;&quot;&gt; [&lt;/span&gt;&lt;span style=&quot;color: #676867;&quot;&gt;...new&lt;/span&gt;&lt;span style=&quot;color: #c5c8c6;&quot;&gt; &lt;/span&gt;&lt;span style=&quot;color: #c7444a;&quot;&gt;Set&lt;/span&gt;&lt;span style=&quot;color: #c5c8c6;&quot;&gt;(&lt;/span&gt;&lt;span style=&quot;color: #6089b4;&quot;&gt;numbers&lt;/span&gt;&lt;span style=&quot;color: #c5c8c6;&quot;&gt;)].&lt;/span&gt;&lt;span style=&quot;color: #ce6700;&quot;&gt;sort&lt;/span&gt;&lt;span style=&quot;color: #c5c8c6;&quot;&gt;((&lt;/span&gt;&lt;span style=&quot;color: #6089b4;&quot;&gt;a&lt;/span&gt;&lt;span style=&quot;color: #c5c8c6;&quot;&gt;, &lt;/span&gt;&lt;span style=&quot;color: #6089b4;&quot;&gt;b&lt;/span&gt;&lt;span style=&quot;color: #c5c8c6;&quot;&gt;) &lt;/span&gt;&lt;span style=&quot;color: #9872a2;&quot;&gt;=&amp;gt;&lt;/span&gt;&lt;span style=&quot;color: #c5c8c6;&quot;&gt; &lt;/span&gt;&lt;span style=&quot;color: #6089b4;&quot;&gt;a&lt;/span&gt;&lt;span style=&quot;color: #c5c8c6;&quot;&gt; &lt;/span&gt;&lt;span style=&quot;color: #676867;&quot;&gt;-&lt;/span&gt;&lt;span style=&quot;color: #c5c8c6;&quot;&gt; &lt;/span&gt;&lt;span style=&quot;color: #6089b4;&quot;&gt;b&lt;/span&gt;&lt;span style=&quot;color: #c5c8c6;&quot;&gt;);&lt;/span&gt;&lt;/div&gt;&lt;br&gt;&lt;div&gt;&lt;span style=&quot;color: #c5c8c6;&quot;&gt;                    &lt;/span&gt;&lt;span style=&quot;color: #9872a2;&quot;&gt;if&lt;/span&gt;&lt;span style=&quot;color: #c5c8c6;&quot;&gt; (&lt;/span&gt;&lt;span style=&quot;color: #6089b4;&quot;&gt;uniqueNumbers&lt;/span&gt;&lt;span style=&quot;color: #c5c8c6;&quot;&gt;.&lt;/span&gt;&lt;span style=&quot;color: #c7444a;&quot;&gt;length&lt;/span&gt;&lt;span style=&quot;color: #c5c8c6;&quot;&gt; &lt;/span&gt;&lt;span style=&quot;color: #676867;&quot;&gt;===&lt;/span&gt;&lt;span style=&quot;color: #c5c8c6;&quot;&gt; &lt;/span&gt;&lt;span style=&quot;color: #6089b4;&quot;&gt;7&lt;/span&gt;&lt;span style=&quot;color: #c5c8c6;&quot;&gt;) {&lt;/span&gt;&lt;/div&gt;&lt;div&gt;&lt;span style=&quot;color: #c5c8c6;&quot;&gt;                        &lt;/span&gt;&lt;span style=&quot;color: #ce6700;&quot;&gt;callback&lt;/span&gt;&lt;span style=&quot;color: #c5c8c6;&quot;&gt;(&lt;/span&gt;&lt;span style=&quot;color: #6089b4;&quot;&gt;uniqueNumbers&lt;/span&gt;&lt;span style=&quot;color: #c5c8c6;&quot;&gt;);&lt;/span&gt;&lt;/div&gt;&lt;div&gt;&lt;span style=&quot;color: #c5c8c6;&quot;&gt;                    } &lt;/span&gt;&lt;span style=&quot;color: #9872a2;&quot;&gt;else&lt;/span&gt;&lt;span style=&quot;color: #c5c8c6;&quot;&gt; &lt;/span&gt;&lt;span style=&quot;color: #9872a2;&quot;&gt;if&lt;/span&gt;&lt;span style=&quot;color: #c5c8c6;&quot;&gt; (&lt;/span&gt;&lt;span style=&quot;color: #6089b4;&quot;&gt;retries&lt;/span&gt;&lt;span style=&quot;color: #c5c8c6;&quot;&gt; &lt;/span&gt;&lt;span style=&quot;color: #676867;&quot;&gt;&amp;gt;&lt;/span&gt;&lt;span style=&quot;color: #c5c8c6;&quot;&gt; &lt;/span&gt;&lt;span style=&quot;color: #6089b4;&quot;&gt;0&lt;/span&gt;&lt;span style=&quot;color: #c5c8c6;&quot;&gt;) {&lt;/span&gt;&lt;/div&gt;&lt;div&gt;&lt;span style=&quot;color: #c5c8c6;&quot;&gt;                        &lt;/span&gt;&lt;span style=&quot;color: #c7444a;&quot;&gt;console&lt;/span&gt;&lt;span style=&quot;color: #c5c8c6;&quot;&gt;.&lt;/span&gt;&lt;span style=&quot;color: #ce6700;&quot;&gt;warn&lt;/span&gt;&lt;span style=&quot;color: #c5c8c6;&quot;&gt;(&lt;/span&gt;&lt;span style=&quot;color: #9aa83a;&quot;&gt;'Retrying due to insufficient unique numbers'&lt;/span&gt;&lt;span style=&quot;color: #c5c8c6;&quot;&gt;);&lt;/span&gt;&lt;/div&gt;&lt;div&gt;&lt;span style=&quot;color: #c5c8c6;&quot;&gt;                        &lt;/span&gt;&lt;span style=&quot;color: #c7444a;&quot;&gt;this&lt;/span&gt;&lt;span style=&quot;color: #c5c8c6;&quot;&gt;.&lt;/span&gt;&lt;span style=&quot;color: #ce6700;&quot;&gt;generateUniqueNumbers&lt;/span&gt;&lt;span style=&quot;color: #c5c8c6;&quot;&gt;(&lt;/span&gt;&lt;span style=&quot;color: #6089b4;&quot;&gt;callback&lt;/span&gt;&lt;span style=&quot;color: #c5c8c6;&quot;&gt;, &lt;/span&gt;&lt;span style=&quot;color: #6089b4;&quot;&gt;retries&lt;/span&gt;&lt;span style=&quot;color: #c5c8c6;&quot;&gt; &lt;/span&gt;&lt;span style=&quot;color: #676867;&quot;&gt;-&lt;/span&gt;&lt;span style=&quot;color: #c5c8c6;&quot;&gt; &lt;/span&gt;&lt;span style=&quot;color: #6089b4;&quot;&gt;1&lt;/span&gt;&lt;span style=&quot;color: #c5c8c6;&quot;&gt;);&lt;/span&gt;&lt;/div&gt;&lt;div&gt;&lt;span style=&quot;color: #c5c8c6;&quot;&gt;                    } &lt;/span&gt;&lt;span style=&quot;color: #9872a2;&quot;&gt;else&lt;/span&gt;&lt;span style=&quot;color: #c5c8c6;&quot;&gt; {&lt;/span&gt;&lt;/div&gt;&lt;div&gt;&lt;span style=&quot;color: #c5c8c6;&quot;&gt;                        &lt;/span&gt;&lt;span style=&quot;color: #c7444a;&quot;&gt;console&lt;/span&gt;&lt;span style=&quot;color: #c5c8c6;&quot;&gt;.&lt;/span&gt;&lt;span style=&quot;color: #ce6700;&quot;&gt;warn&lt;/span&gt;&lt;span style=&quot;color: #c5c8c6;&quot;&gt;(&lt;/span&gt;&lt;span style=&quot;color: #9aa83a;&quot;&gt;'Falling back to local generation due to repeated failures'&lt;/span&gt;&lt;span style=&quot;color: #c5c8c6;&quot;&gt;);&lt;/span&gt;&lt;/div&gt;&lt;div&gt;&lt;span style=&quot;color: #c5c8c6;&quot;&gt;                        &lt;/span&gt;&lt;span style=&quot;color: #6089b4;&quot;&gt;uniqueNumbers&lt;/span&gt;&lt;span style=&quot;color: #c5c8c6;&quot;&gt; &lt;/span&gt;&lt;span style=&quot;color: #676867;&quot;&gt;=&lt;/span&gt;&lt;span style=&quot;color: #c5c8c6;&quot;&gt; &lt;/span&gt;&lt;span style=&quot;color: #c7444a;&quot;&gt;this&lt;/span&gt;&lt;span style=&quot;color: #c5c8c6;&quot;&gt;.&lt;/span&gt;&lt;span style=&quot;color: #ce6700;&quot;&gt;generateFallbackNumbers&lt;/span&gt;&lt;span style=&quot;color: #c5c8c6;&quot;&gt;(&lt;/span&gt;&lt;span style=&quot;color: #6089b4;&quot;&gt;uniqueNumbers&lt;/span&gt;&lt;span style=&quot;color: #c5c8c6;&quot;&gt;);&lt;/span&gt;&lt;/div&gt;&lt;div&gt;&lt;span style=&quot;color: #c5c8c6;&quot;&gt;                        &lt;/span&gt;&lt;span style=&quot;color: #ce6700;&quot;&gt;callback&lt;/span&gt;&lt;span style=&quot;color: #c5c8c6;&quot;&gt;(&lt;/span&gt;&lt;span style=&quot;color: #6089b4;&quot;&gt;uniqueNumbers&lt;/span&gt;&lt;span style=&quot;color: #c5c8c6;&quot;&gt;);&lt;/span&gt;&lt;/div&gt;&lt;div&gt;&lt;span style=&quot;color: #c5c8c6;&quot;&gt;                    }&lt;/span&gt;&lt;/div&gt;&lt;div&gt;&lt;span style=&quot;color: #c5c8c6;&quot;&gt;                } &lt;/span&gt;&lt;span style=&quot;color: #9872a2;&quot;&gt;else&lt;/span&gt;&lt;span style=&quot;color: #c5c8c6;&quot;&gt; {&lt;/span&gt;&lt;/div&gt;&lt;div&gt;&lt;span style=&quot;color: #c5c8c6;&quot;&gt;                    &lt;/span&gt;&lt;span style=&quot;color: #c7444a;&quot;&gt;console&lt;/span&gt;&lt;span style=&quot;color: #c5c8c6;&quot;&gt;.&lt;/span&gt;&lt;span style=&quot;color: #ce6700;&quot;&gt;error&lt;/span&gt;&lt;span style=&quot;color: #c5c8c6;&quot;&gt;(&lt;/span&gt;&lt;span style=&quot;color: #9aa83a;&quot;&gt;'There was a problem with the fetch operation.'&lt;/span&gt;&lt;span style=&quot;color: #c5c8c6;&quot;&gt;);&lt;/span&gt;&lt;/div&gt;&lt;div&gt;&lt;span style=&quot;color: #c5c8c6;&quot;&gt;                }&lt;/span&gt;&lt;/div&gt;&lt;div&gt;&lt;span style=&quot;color: #c5c8c6;&quot;&gt;            }&lt;/span&gt;&lt;/div&gt;&lt;div&gt;&lt;span style=&quot;color: #c5c8c6;&quot;&gt;        };&lt;/span&gt;&lt;/div&gt;&lt;div&gt;&lt;span style=&quot;color: #c5c8c6;&quot;&gt;        &lt;/span&gt;&lt;span style=&quot;color: #6089b4;&quot;&gt;xhr&lt;/span&gt;&lt;span style=&quot;color: #c5c8c6;&quot;&gt;.&lt;/span&gt;&lt;span style=&quot;color: #ce6700;&quot;&gt;send&lt;/span&gt;&lt;span style=&quot;color: #c5c8c6;&quot;&gt;();&lt;/span&gt;&lt;/div&gt;&lt;div&gt;&lt;span style=&quot;color: #c5c8c6;&quot;&gt;    }&lt;/span&gt;&lt;/div&gt;&lt;/div&gt;" style="text;whiteSpace=wrap;html=1;fontSize=20;fontFamily=Architects Daughter;" vertex="1" parent="1">
                    <mxGeometry x="770" y="-10" width="560" height="780" as="geometry"/>
                </mxCell>
                <mxCell id="12" value="" style="edgeStyle=none;orthogonalLoop=1;jettySize=auto;html=1;sketch=1;hachureGap=4;jiggle=2;curveFitting=1;fontFamily=Architects Daughter;fontSource=https%3A%2F%2Ffonts.googleapis.com%2Fcss%3Ffamily%3DArchitects%2BDaughter;fontSize=16;entryX=0;entryY=0;entryDx=0;entryDy=0;" edge="1" parent="1" target="9">
                    <mxGeometry width="100" relative="1" as="geometry">
                        <mxPoint x="320" y="-150" as="sourcePoint"/>
                        <mxPoint x="460" y="-50" as="targetPoint"/>
                        <Array as="points"/>
                    </mxGeometry>
                </mxCell>
                <mxCell id="13" value="" style="edgeStyle=none;orthogonalLoop=1;jettySize=auto;html=1;sketch=1;hachureGap=4;jiggle=2;curveFitting=1;fontFamily=Architects Daughter;fontSource=https%3A%2F%2Ffonts.googleapis.com%2Fcss%3Ffamily%3DArchitects%2BDaughter;fontSize=16;exitX=-0.001;exitY=0.403;exitDx=0;exitDy=0;exitPerimeter=0;" edge="1" parent="1" source="9">
                    <mxGeometry width="100" relative="1" as="geometry">
                        <mxPoint x="760" y="120" as="sourcePoint"/>
                        <mxPoint x="160" y="-130" as="targetPoint"/>
                        <Array as="points"/>
                    </mxGeometry>
                </mxCell>
                <mxCell id="16" style="edgeStyle=none;sketch=1;hachureGap=4;jiggle=2;curveFitting=1;html=1;entryX=1.007;entryY=0.532;entryDx=0;entryDy=0;entryPerimeter=0;fontFamily=Architects Daughter;fontSource=https%3A%2F%2Ffonts.googleapis.com%2Fcss%3Ffamily%3DArchitects%2BDaughter;fontSize=16;" edge="1" parent="1" source="14" target="9">
                    <mxGeometry relative="1" as="geometry"/>
                </mxCell>
                <mxCell id="14" value="&lt;meta charset=&quot;utf-8&quot;&gt;&lt;div style=&quot;color: rgb(197, 200, 198); background-color: rgb(30, 30, 30); font-family: Menlo, Monaco, &amp;quot;Courier New&amp;quot;, monospace; font-weight: normal; font-size: 15px; line-height: 23px;&quot;&gt;&lt;div&gt;&lt;span style=&quot;color: #9a9b99;&quot;&gt;// Fallback mechanism to generate remaining unique numbers locally&lt;/span&gt;&lt;/div&gt;&lt;div&gt;&lt;span style=&quot;color: #c5c8c6;&quot;&gt;    &lt;/span&gt;&lt;span style=&quot;color: #ce6700;&quot;&gt;generateFallbackNumbers&lt;/span&gt;&lt;span style=&quot;color: #c5c8c6;&quot;&gt;(&lt;/span&gt;&lt;span style=&quot;color: #6089b4;&quot;&gt;existingNumbers&lt;/span&gt;&lt;span style=&quot;color: #c5c8c6;&quot;&gt;) {&lt;/span&gt;&lt;/div&gt;&lt;div&gt;&lt;span style=&quot;color: #c5c8c6;&quot;&gt;        &lt;/span&gt;&lt;span style=&quot;color: #9872a2;&quot;&gt;const&lt;/span&gt;&lt;span style=&quot;color: #c5c8c6;&quot;&gt; &lt;/span&gt;&lt;span style=&quot;color: #6089b4;&quot;&gt;uniqueNumbers&lt;/span&gt;&lt;span style=&quot;color: #c5c8c6;&quot;&gt; &lt;/span&gt;&lt;span style=&quot;color: #676867;&quot;&gt;=&lt;/span&gt;&lt;span style=&quot;color: #c5c8c6;&quot;&gt; &lt;/span&gt;&lt;span style=&quot;color: #676867;&quot;&gt;new&lt;/span&gt;&lt;span style=&quot;color: #c5c8c6;&quot;&gt; &lt;/span&gt;&lt;span style=&quot;color: #c7444a;&quot;&gt;Set&lt;/span&gt;&lt;span style=&quot;color: #c5c8c6;&quot;&gt;(&lt;/span&gt;&lt;span style=&quot;color: #6089b4;&quot;&gt;existingNumbers&lt;/span&gt;&lt;span style=&quot;color: #c5c8c6;&quot;&gt;);&lt;/span&gt;&lt;/div&gt;&lt;div&gt;&lt;span style=&quot;color: #c5c8c6;&quot;&gt;        &lt;/span&gt;&lt;span style=&quot;color: #9872a2;&quot;&gt;while&lt;/span&gt;&lt;span style=&quot;color: #c5c8c6;&quot;&gt; (&lt;/span&gt;&lt;span style=&quot;color: #6089b4;&quot;&gt;uniqueNumbers&lt;/span&gt;&lt;span style=&quot;color: #c5c8c6;&quot;&gt;.&lt;/span&gt;&lt;span style=&quot;color: #c7444a;&quot;&gt;size&lt;/span&gt;&lt;span style=&quot;color: #c5c8c6;&quot;&gt; &lt;/span&gt;&lt;span style=&quot;color: #676867;&quot;&gt;&amp;lt;&lt;/span&gt;&lt;span style=&quot;color: #c5c8c6;&quot;&gt; &lt;/span&gt;&lt;span style=&quot;color: #6089b4;&quot;&gt;7&lt;/span&gt;&lt;span style=&quot;color: #c5c8c6;&quot;&gt;) {&lt;/span&gt;&lt;/div&gt;&lt;div&gt;&lt;span style=&quot;color: #c5c8c6;&quot;&gt;            &lt;/span&gt;&lt;span style=&quot;color: #6089b4;&quot;&gt;uniqueNumbers&lt;/span&gt;&lt;span style=&quot;color: #c5c8c6;&quot;&gt;.&lt;/span&gt;&lt;span style=&quot;color: #ce6700;&quot;&gt;add&lt;/span&gt;&lt;span style=&quot;color: #c5c8c6;&quot;&gt;(&lt;/span&gt;&lt;span style=&quot;color: #c7444a;&quot;&gt;Math&lt;/span&gt;&lt;span style=&quot;color: #c5c8c6;&quot;&gt;.&lt;/span&gt;&lt;span style=&quot;color: #ce6700;&quot;&gt;floor&lt;/span&gt;&lt;span style=&quot;color: #c5c8c6;&quot;&gt;(&lt;/span&gt;&lt;span style=&quot;color: #c7444a;&quot;&gt;Math&lt;/span&gt;&lt;span style=&quot;color: #c5c8c6;&quot;&gt;.&lt;/span&gt;&lt;span style=&quot;color: #ce6700;&quot;&gt;random&lt;/span&gt;&lt;span style=&quot;color: #c5c8c6;&quot;&gt;() &lt;/span&gt;&lt;span style=&quot;color: #676867;&quot;&gt;*&lt;/span&gt;&lt;span style=&quot;color: #c5c8c6;&quot;&gt; &lt;/span&gt;&lt;span style=&quot;color: #6089b4;&quot;&gt;49&lt;/span&gt;&lt;span style=&quot;color: #c5c8c6;&quot;&gt;) &lt;/span&gt;&lt;span style=&quot;color: #676867;&quot;&gt;+&lt;/span&gt;&lt;span style=&quot;color: #c5c8c6;&quot;&gt; &lt;/span&gt;&lt;span style=&quot;color: #6089b4;&quot;&gt;1&lt;/span&gt;&lt;span style=&quot;color: #c5c8c6;&quot;&gt;);&lt;/span&gt;&lt;/div&gt;&lt;div&gt;&lt;span style=&quot;color: #c5c8c6;&quot;&gt;        }&lt;/span&gt;&lt;/div&gt;&lt;div&gt;&lt;span style=&quot;color: #c5c8c6;&quot;&gt;        &lt;/span&gt;&lt;span style=&quot;color: #9872a2;&quot;&gt;return&lt;/span&gt;&lt;span style=&quot;color: #c5c8c6;&quot;&gt; [&lt;/span&gt;&lt;span style=&quot;color: #676867;&quot;&gt;...&lt;/span&gt;&lt;span style=&quot;color: #6089b4;&quot;&gt;uniqueNumbers&lt;/span&gt;&lt;span style=&quot;color: #c5c8c6;&quot;&gt;].&lt;/span&gt;&lt;span style=&quot;color: #ce6700;&quot;&gt;sort&lt;/span&gt;&lt;span style=&quot;color: #c5c8c6;&quot;&gt;((&lt;/span&gt;&lt;span style=&quot;color: #6089b4;&quot;&gt;a&lt;/span&gt;&lt;span style=&quot;color: #c5c8c6;&quot;&gt;, &lt;/span&gt;&lt;span style=&quot;color: #6089b4;&quot;&gt;b&lt;/span&gt;&lt;span style=&quot;color: #c5c8c6;&quot;&gt;) &lt;/span&gt;&lt;span style=&quot;color: #9872a2;&quot;&gt;=&amp;gt;&lt;/span&gt;&lt;span style=&quot;color: #c5c8c6;&quot;&gt; &lt;/span&gt;&lt;span style=&quot;color: #6089b4;&quot;&gt;a&lt;/span&gt;&lt;span style=&quot;color: #c5c8c6;&quot;&gt; &lt;/span&gt;&lt;span style=&quot;color: #676867;&quot;&gt;-&lt;/span&gt;&lt;span style=&quot;color: #c5c8c6;&quot;&gt; &lt;/span&gt;&lt;span style=&quot;color: #6089b4;&quot;&gt;b&lt;/span&gt;&lt;span style=&quot;color: #c5c8c6;&quot;&gt;);&lt;/span&gt;&lt;/div&gt;&lt;div&gt;&lt;span style=&quot;color: #c5c8c6;&quot;&gt;    }&lt;/span&gt;&lt;/div&gt;&lt;div&gt;&lt;span style=&quot;color: #c5c8c6;&quot;&gt;}&lt;/span&gt;&lt;/div&gt;&lt;/div&gt;" style="text;whiteSpace=wrap;html=1;fontSize=20;fontFamily=Architects Daughter;" vertex="1" parent="1">
                    <mxGeometry x="1500" y="150" width="560" height="250" as="geometry"/>
                </mxCell>
                <mxCell id="17" value="" style="edgeStyle=none;orthogonalLoop=1;jettySize=auto;html=1;sketch=1;hachureGap=4;jiggle=2;curveFitting=1;fontFamily=Architects Daughter;fontSource=https%3A%2F%2Ffonts.googleapis.com%2Fcss%3Ffamily%3DArchitects%2BDaughter;fontSize=16;entryX=0.3;entryY=-0.015;entryDx=0;entryDy=0;entryPerimeter=0;exitX=0;exitY=0.696;exitDx=0;exitDy=0;exitPerimeter=0;" edge="1" parent="1" source="3" target="4">
                    <mxGeometry width="100" relative="1" as="geometry">
                        <mxPoint x="-210" y="10" as="sourcePoint"/>
                        <mxPoint x="-110" y="10" as="targetPoint"/>
                        <Array as="points"/>
                    </mxGeometry>
                </mxCell>
                <mxCell id="18" value="" style="edgeStyle=none;orthogonalLoop=1;jettySize=auto;html=1;sketch=1;hachureGap=4;jiggle=2;curveFitting=1;fontFamily=Architects Daughter;fontSource=https%3A%2F%2Ffonts.googleapis.com%2Fcss%3Ffamily%3DArchitects%2BDaughter;fontSize=16;" edge="1" parent="1">
                    <mxGeometry width="100" relative="1" as="geometry">
                        <mxPoint x="-350" y="280" as="sourcePoint"/>
                        <mxPoint x="-190" y="410" as="targetPoint"/>
                        <Array as="points"/>
                    </mxGeometry>
                </mxCell>
                <mxCell id="19" value="" style="edgeStyle=none;orthogonalLoop=1;jettySize=auto;html=1;sketch=1;hachureGap=4;jiggle=2;curveFitting=1;fontFamily=Architects Daughter;fontSource=https%3A%2F%2Ffonts.googleapis.com%2Fcss%3Ffamily%3DArchitects%2BDaughter;fontSize=16;exitX=-0.004;exitY=0.702;exitDx=0;exitDy=0;exitPerimeter=0;" edge="1" parent="1" source="8" target="6">
                    <mxGeometry width="100" relative="1" as="geometry">
                        <mxPoint x="-340" y="1000" as="sourcePoint"/>
                        <mxPoint x="-240" y="1000" as="targetPoint"/>
                        <Array as="points"/>
                    </mxGeometry>
                </mxCell>
            </root>
        </mxGraphModel>
    </diagram>
</mxfile>